<?xml version="1.0" encoding="UTF-8"?>
<svg version="1.1" xmlns="http://www.w3.org/2000/svg" width="603" height="414">
<path d="M0 0 C1.07507813 -0.0937793 1.07507813 -0.0937793 2.171875 -0.18945312 C4.42551794 -0.2578081 6.10931164 -0.1567378 8.25 0.5625 C10.59192198 2.87332022 11.8376739 5.61833887 13.25 8.5625 C13.71921875 9.46170166 14.1884375 10.36090332 14.671875 11.28735352 C16.27797114 14.38191984 17.83088291 17.49907038 19.375 20.625 C19.93541992 21.75373535 20.49583984 22.8824707 21.07324219 24.04541016 C24.92334763 31.82271001 28.73346475 39.61939099 32.5 47.4375 C32.9655127 48.39922119 33.43102539 49.36094238 33.91064453 50.35180664 C34.33716309 51.24375732 34.76368164 52.13570801 35.203125 53.0546875 C35.57598633 53.83183105 35.94884766 54.60897461 36.33300781 55.40966797 C37.20268493 57.45141793 37.78114325 59.39726782 38.25 61.5625 C38.91 61.5625 39.57 61.5625 40.25 61.5625 C40.33306396 60.91643799 40.41612793 60.27037598 40.50170898 59.60473633 C41.53152026 55.41795709 43.35452601 51.76000035 45.22265625 47.88671875 C45.62399277 47.04389847 46.02532928 46.20107819 46.43882751 45.3327179 C47.72482469 42.63594626 49.01871106 39.94304063 50.3125 37.25 C51.15608016 35.48134923 51.99918366 33.71247102 52.84179688 31.94335938 C57.86225246 21.42422245 62.99457904 10.96616322 68.25 0.5625 C70.21257399 0.54704666 72.17514843 0.53164604 74.13772583 0.51663208 C75.65555953 0.50431622 77.17337059 0.48913668 78.69116211 0.47241211 C80.54433759 0.46526055 82.39749308 0.5122148 84.25 0.5625 C85.25 1.5625 85.25 1.5625 85.37025452 4.15040588 C85.36803391 5.30290329 85.36581329 6.4554007 85.36352539 7.64282227 C85.36341209 9.59473228 85.36341209 9.59473228 85.36329651 11.58607483 C85.35818909 13.01701902 85.35297308 14.44796282 85.34765625 15.87890625 C85.34579203 17.3347926 85.34436815 18.79067957 85.34336853 20.24656677 C85.33954365 24.08529379 85.32971364 27.92398319 85.31866455 31.76269531 C85.30844978 35.67707816 85.30387077 39.59146706 85.29882812 43.50585938 C85.28809133 51.19142541 85.27049479 58.87695265 85.25 66.5625 C79.31 66.5625 73.37 66.5625 67.25 66.5625 C66.92 59.9625 66.59 53.3625 66.25 46.5625 C64.96222656 49.14964844 63.67445313 51.73679688 62.34765625 54.40234375 C61.10375131 56.89794474 59.85916062 59.39320259 58.61450195 61.88842773 C57.74757189 63.62732721 56.88135902 65.36658444 56.01586914 67.10620117 C54.77416826 69.60168588 53.52992259 72.09588701 52.28515625 74.58984375 C51.89658951 75.37213852 51.50802277 76.15443329 51.10768127 76.96043396 C48.36387171 82.44862829 48.36387171 82.44862829 47.25 83.5625 C44.55345146 83.63569621 41.88308542 83.65492537 39.1875 83.625 C38.42888672 83.62048828 37.67027344 83.61597656 36.88867188 83.61132812 C35.00908129 83.5995068 33.12953101 83.58157078 31.25 83.5625 C29.43166292 80.2740279 27.62155906 76.98108388 25.8125 73.6875 C25.31556641 72.78902344 24.81863281 71.89054687 24.30664062 70.96484375 C19.36773004 61.95676784 14.80679203 52.76825685 10.25 43.5625 C10.22494385 44.85986084 10.1998877 46.15722168 10.17407227 47.49389648 C10.08018248 52.28908856 9.97991751 57.0841295 9.87768555 61.87915039 C9.83426666 63.95789057 9.79259688 66.03666803 9.75268555 68.11547852 C9.69515079 71.09663145 9.63140881 74.07759549 9.56640625 77.05859375 C9.54133751 78.46171059 9.54133751 78.46171059 9.51576233 79.89317322 C9.49581711 80.75399002 9.47587189 81.61480682 9.45532227 82.50170898 C9.43977798 83.26337875 9.4242337 84.02504852 9.40821838 84.80979919 C9.25 86.5625 9.25 86.5625 8.25 87.5625 C5.5726862 87.66231214 2.92695825 87.70129875 0.25 87.6875 C-0.87535156 87.69330078 -0.87535156 87.69330078 -2.0234375 87.69921875 C-7.62338947 87.68911053 -7.62338947 87.68911053 -8.75 86.5625 C-8.85043271 83.92049939 -8.8861685 81.3046141 -8.87939453 78.66210938 C-8.88114685 77.83451614 -8.88289917 77.00692291 -8.88470459 76.1542511 C-8.88912393 73.40489638 -8.88618483 70.65560543 -8.8828125 67.90625 C-8.88348552 66.00435371 -8.88445552 64.10245751 -8.88571167 62.20056152 C-8.88718875 58.20905745 -8.88503375 54.21757571 -8.88037109 50.22607422 C-8.8746738 45.09759493 -8.87795275 39.96916798 -8.88394356 34.84069061 C-8.88754889 30.91175946 -8.88641072 26.98284082 -8.88381577 23.0539093 C-8.88314642 21.16237888 -8.88397519 19.27084735 -8.88629532 17.37931824 C-8.88882138 14.74047823 -8.88498191 12.10172419 -8.87939453 9.46289062 C-8.88141876 8.67324417 -8.88344299 7.88359772 -8.88552856 7.07002258 C-8.85614924 -0.38083677 -6.84370396 0.25904865 0 0 Z " fill="#B91B16" transform="translate(176.75,171.4375)"/>
<path d="M0 0 C5.61 0 11.22 0 17 0 C17 37.62 17 75.24 17 114 C72.935 114.495 72.935 114.495 130 115 C130 120.28 130 125.56 130 131 C129 132 129 132 126.86231136 132.12304783 C125.9119428 132.12212604 124.96157423 132.12120424 123.98240662 132.12025452 C122.89787673 132.12163201 121.81334684 132.12300951 120.69595242 132.12442875 C118.88857145 132.11903159 118.88857145 132.11903159 117.04467773 132.11352539 C115.76588525 132.11364593 114.48709276 132.11376646 113.16954899 132.11389065 C109.6992129 132.11411712 106.22891105 132.1083063 102.75858307 132.10128021 C99.50641471 132.09560031 96.25424792 132.09531791 93.0020752 132.09460449 C83.48054557 132.08934971 73.95902236 132.07538865 64.4375 132.0625 C43.173125 132.041875 21.90875 132.02125 0 132 C0 88.44 0 44.88 0 0 Z " fill="#3F3F3F" transform="translate(47,181)"/>
<path d="M0 0 C42.9 0 85.8 0 130 0 C130 43.23 130 86.46 130 131 C124.39 131 118.78 131 113 131 C113 93.38 113 55.76 113 17 C76.18566168 17.03961877 76.18566168 17.03961877 39.37133789 17.09008789 C32.26647949 17.09460449 32.26647949 17.09460449 28.9450531 17.09544373 C26.61509511 17.09698375 24.28513793 17.10050987 21.95518494 17.10557556 C18.43503424 17.11284924 14.91493243 17.11390755 11.39477539 17.11352539 C10.34911691 17.1171235 9.30345842 17.12072161 8.22611332 17.12442875 C7.28432445 17.12305125 6.34253557 17.12167376 5.37220764 17.12025452 C4.13470056 17.12163721 4.13470056 17.12163721 2.87219334 17.12304783 C1 17 1 17 0 16 C0 10.72 0 5.44 0 0 Z " fill="#5E5E5E" transform="translate(428,106)"/>
<path d="M0 0 C7.97655232 6.31660681 13.74753057 15.64124723 15.75 25.6953125 C17.21421363 39.19353193 15.81590463 51.8211641 7.62890625 63.00390625 C-0.80381506 73.33752876 -10.23552229 77.78940524 -23.5703125 79.2890625 C-35.39011014 79.70712608 -46.44073653 75.91371206 -55.22265625 67.99609375 C-65.90140547 56.83829784 -67.4941474 44.71931958 -67.27734375 29.97265625 C-66.85318611 18.69765988 -61.42903797 9.00326477 -53.375 1.25 C-38.3787853 -11.150716 -15.64391093 -11.17004481 0 0 Z M-44.6796875 17.88671875 C-49.51664508 25.62871298 -51.27665609 33.62654 -49.4921875 42.53515625 C-47.76386348 49.12066676 -45.48598496 54.43275126 -39.91015625 58.5390625 C-33.15940169 62.45603192 -26.67009548 63.04101168 -19 62 C-12.73052457 60.26132003 -8.54657176 56.34747892 -5 51 C-0.8492028 43.25184522 -0.49517619 33.7118581 -2.7265625 25.2421875 C-5.33519341 18.98571499 -8.94272767 13.79535137 -15.0625 10.625 C-26.11239474 6.24187509 -37.32031444 8.49648045 -44.6796875 17.88671875 Z " fill="#B81B17" transform="translate(418,180)"/>
<path d="M0 0 C2.26080936 -0.0095797 4.52065929 -0.04052411 6.78125 -0.07226562 C18.98540419 -0.16314556 29.84519141 0.99079283 39.4296875 9.24023438 C44.41867478 14.96167685 44.77622771 20.60672095 44.7109375 27.93554688 C44.19561445 33.99059276 42.1294587 37.69498783 37.6796875 41.74023438 C36.9371875 42.23523438 36.1946875 42.73023438 35.4296875 43.24023438 C35.97238281 43.64113281 36.51507813 44.04203125 37.07421875 44.45507812 C42.4451686 48.72280584 45.46039238 52.3424598 46.4296875 59.24023438 C46.68502055 66.71452921 44.9239365 73.32915872 39.890625 78.96289062 C31.71019057 86.56434453 21.84238398 87.41683917 11.1171875 87.36523438 C9.88258789 87.37103516 9.88258789 87.37103516 8.62304688 87.37695312 C2.55640354 87.36695042 2.55640354 87.36695042 1.4296875 86.24023438 C1.35649129 83.54368584 1.33726213 80.8733198 1.3671875 78.17773438 C1.37169922 77.41912109 1.37621094 76.66050781 1.38085938 75.87890625 C1.3926807 73.99931566 1.41061672 72.11976539 1.4296875 70.24023438 C2.50347656 70.19125 3.57726562 70.14226562 4.68359375 70.09179688 C6.11981392 70.0167004 7.55601069 69.94115562 8.9921875 69.86523438 C9.69666016 69.83429688 10.40113281 69.80335938 11.12695312 69.77148438 C16.48930772 69.47494864 22.18323174 69.13568142 26.4296875 65.55273438 C27.95317973 62.02965859 27.55064047 59.86684691 26.4296875 56.24023438 C21.82127049 53.20044314 17.56640196 52.77530311 12.1875 52.72851562 C11.03494217 52.70158882 11.03494217 52.70158882 9.85910034 52.67411804 C7.42435055 52.6202848 4.9897937 52.58620745 2.5546875 52.55273438 C0.89580664 52.51953733 -0.76304885 52.48504547 -2.421875 52.44921875 C-6.47121432 52.36457446 -10.52049911 52.2976358 -14.5703125 52.24023438 C-14.59557989 44.99536887 -14.6131443 37.75051464 -14.62524414 30.50561523 C-14.63028606 28.03881404 -14.63711941 25.57201585 -14.64575195 23.10522461 C-14.65782375 19.56818909 -14.66354206 16.03119292 -14.66796875 12.49414062 C-14.67313004 11.38373917 -14.67829132 10.27333771 -14.68360901 9.12928772 C-14.68368454 8.1083049 -14.68376007 7.08732208 -14.68383789 6.03540039 C-14.6860585 5.13161148 -14.68827911 4.22782257 -14.69056702 3.29664612 C-14.36391679 -2.28923433 -4.39458942 0.01124895 0 0 Z M3.4296875 17.24023438 C3.4296875 23.18023437 3.4296875 29.12023437 3.4296875 35.24023438 C14.81285454 35.70271383 14.81285454 35.70271383 25.4296875 32.11523438 C27.12118023 28.9436855 27.06945951 25.68944001 26.4296875 22.24023438 C24.22228069 19.27165281 22.94371377 18.41157647 19.4296875 17.24023438 C16.68886591 17.16966739 13.98121773 17.14687283 11.2421875 17.17773438 C8.6640625 17.19835937 6.0859375 17.21898437 3.4296875 17.24023438 Z " fill="#B61410" transform="translate(291.5703125,171.759765625)"/>
<path d="M0 0 C1.27617188 0.00483398 1.27617188 0.00483398 2.578125 0.00976562 C3.46757813 0.01814453 4.35703125 0.02652344 5.2734375 0.03515625 C6.170625 0.03966797 7.0678125 0.04417969 7.9921875 0.04882812 C10.21100398 0.06063034 12.42968768 0.0770947 14.6484375 0.09765625 C15.1434375 1.58265625 15.1434375 1.58265625 15.6484375 3.09765625 C14.02106442 5.55406844 12.35640143 7.8014341 10.5234375 10.09765625 C5.68540331 16.33808224 1.08345269 22.68925841 -3.3515625 29.22265625 C-3.89055176 30.01542969 -4.42954102 30.80820313 -4.98486328 31.625 C-7.79385563 35.76921241 -10.58062116 39.92792241 -13.3515625 44.09765625 C-12.98393799 44.60103516 -12.61631348 45.10441406 -12.23754883 45.62304688 C-10.54358744 47.94588976 -8.85381032 50.27174664 -7.1640625 52.59765625 C-6.58591797 53.38914063 -6.00777344 54.180625 -5.41210938 54.99609375 C-1.84314989 59.9160153 1.48703324 64.90604699 4.6484375 70.09765625 C-15.12211759 71.74161951 -15.12211759 71.74161951 -20.37109375 67.87109375 C-22.07712775 65.32102188 -23.34868885 62.99254926 -24.3515625 60.09765625 C-28.36667227 63.73725216 -31.23653009 68.03676645 -34.2890625 72.47265625 C-35.81608776 74.68540229 -37.34835088 76.89105198 -38.91674805 79.07470703 C-39.81648241 80.34324522 -40.68347379 81.63636782 -41.49926758 82.96044922 C-43.15543154 85.40906901 -44.58842846 86.9353969 -47.52172852 87.55908203 C-50.09741779 87.68869244 -52.58983836 87.62238741 -55.1640625 87.47265625 C-56.04771484 87.44558594 -56.93136719 87.41851562 -57.84179688 87.390625 C-60.01277364 87.32021494 -62.18248779 87.21260231 -64.3515625 87.09765625 C-64.3515625 82.85962851 -64.07821483 82.21631209 -61.74609375 78.96484375 C-61.18027588 78.16691406 -60.61445801 77.36898437 -60.03149414 76.546875 C-59.4152417 75.69738281 -58.79898926 74.84789062 -58.1640625 73.97265625 C-57.22904907 72.65587891 -57.22904907 72.65587891 -56.27514648 71.3125 C-53.06666412 66.80777946 -49.80312768 62.34783692 -46.4921875 57.91796875 C-45.89043701 57.10602051 -45.28868652 56.29407227 -44.66870117 55.45751953 C-43.51658125 53.9080008 -42.35297626 52.36694295 -41.17700195 50.83544922 C-40.39909302 49.7896167 -40.39909302 49.7896167 -39.60546875 48.72265625 C-38.91432983 47.81386719 -38.91432983 47.81386719 -38.20922852 46.88671875 C-37.17505322 45.12688041 -37.17505322 45.12688041 -37.54931641 43.11254883 C-38.43801464 40.88052615 -39.51718743 39.17489275 -40.93359375 37.234375 C-41.45373047 36.51185547 -41.97386719 35.78933594 -42.50976562 35.04492188 C-43.05568359 34.29919922 -43.60160156 33.55347656 -44.1640625 32.78515625 C-47.87397334 27.68794461 -51.32998452 22.63599652 -54.3515625 17.09765625 C-34.58100741 15.45369299 -34.58100741 15.45369299 -29.33203125 19.32421875 C-27.62599725 21.87429062 -26.35443615 24.20276324 -25.3515625 27.09765625 C-21.89821678 22.83714297 -18.58430065 18.48052515 -15.2890625 14.09765625 C-14.75990234 13.39898437 -14.23074219 12.7003125 -13.68554688 11.98046875 C-11.51472069 9.09329717 -9.45318919 6.26862554 -7.60546875 3.16015625 C-5.57029567 -0.18741816 -3.66829031 -0.02445527 0 0 Z " fill="#B81A15" transform="translate(513.3515625,171.90234375)"/>
<path d="M0 0 C4.67248489 3.6844272 6.10575933 8.62860334 8.125 14.01953125 C8.50911545 15.01884674 8.8932309 16.01816223 9.28898621 17.04776001 C10.53607258 20.29891903 11.76815604 23.55553879 13 26.8125 C13.8509622 29.04017993 14.70293511 31.26747403 15.5559082 33.49438477 C17.25239135 37.92645834 18.94372775 42.36044293 20.63134766 46.79589844 C22.70202916 52.23053869 24.80023505 57.65385477 26.91796875 63.0703125 C27.34796677 64.17154701 27.34796677 64.17154701 27.78665161 65.29502869 C28.84160676 67.99611066 29.8968988 70.69705064 30.95629883 73.39639282 C31.65494112 75.17841982 32.34910039 76.96220251 33.04296875 78.74609375 C33.42477295 79.72247803 33.80657715 80.6988623 34.19995117 81.70483398 C35 84 35 84 35 86 C31.98131565 87.50934217 28.87191602 87.26580081 25.5625 87.3125 C24.5405957 87.35600586 24.5405957 87.35600586 23.49804688 87.40039062 C18.48147697 87.46426468 18.48147697 87.46426468 16.49072266 85.54467773 C14.31760623 81.83514736 13.02632808 77.91949952 11.64453125 73.859375 C11.33803146 72.97719299 11.03153168 72.09501099 10.71574402 71.18609619 C9.74126386 68.37634065 8.7767696 65.56327398 7.8125 62.75 C7.15234891 60.8409188 6.49154904 58.93206181 5.83007812 57.0234375 C4.2125206 52.35152381 2.60390849 47.67661619 1 43 C-0.66743116 45.50114674 -1.53813206 47.22410607 -2.48046875 49.99658203 C-2.75415283 50.79395782 -3.02783691 51.59133362 -3.30981445 52.41287231 C-3.59945068 53.26920258 -3.88908691 54.12553284 -4.1875 55.0078125 C-4.80973646 56.81646109 -5.43213723 58.62505316 -6.0546875 60.43359375 C-7.03162493 63.28800578 -8.00618723 66.14319393 -8.97753906 68.99951172 C-9.91622837 71.75448433 -10.86381568 74.50626872 -11.8125 77.2578125 C-12.10213623 78.11819122 -12.39177246 78.97856995 -12.69018555 79.86502075 C-12.96386963 80.65609222 -13.23755371 81.4471637 -13.51953125 82.26220703 C-13.75776611 82.96153351 -13.99600098 83.66085999 -14.24145508 84.38137817 C-15 86 -15 86 -17 87 C-19.71760108 87.07181821 -22.40859388 87.09299506 -25.125 87.0625 C-25.87910156 87.05798828 -26.63320312 87.05347656 -27.41015625 87.04882812 C-29.27347127 87.03703499 -31.13674555 87.01909942 -33 87 C-34.39685941 82.80942176 -32.74478877 80.09092243 -31.16015625 76.1796875 C-30.6899984 74.98650154 -30.6899984 74.98650154 -30.21034241 73.76921082 C-29.16983379 71.13423812 -28.11627063 68.50469398 -27.0625 65.875 C-26.33810868 64.04911197 -25.61465054 62.22285347 -24.89208984 60.39624023 C-23.76315749 57.54315496 -22.63332989 54.69045029 -21.49987793 51.8391571 C-18.77594499 44.98395681 -16.09682493 38.11247304 -13.44140625 31.23046875 C-12.71026143 29.33933368 -11.97906114 27.44822006 -11.24780273 25.55712891 C-10.18868138 22.8176769 -9.13086435 20.0777623 -8.0774231 17.33612061 C-7.10074828 14.79638715 -6.11753393 12.25927852 -5.1328125 9.72265625 C-4.8439064 8.96623337 -4.55500031 8.20981049 -4.25733948 7.4304657 C-2.2278132 2.2278132 -2.2278132 2.2278132 0 0 Z " fill="#B81B17" transform="translate(120,172)"/>
<path d="M0 0 C37.62 0 75.24 0 114 0 C114 4.95 114 9.9 114 15 C71.76 15 29.52 15 -14 15 C-14 13.35 -14 11.7 -14 10 C-9.38 10 -4.76 10 0 10 C0 6.7 0 3.4 0 0 Z " fill="#020202" transform="translate(62,297)"/>
<path d="M0 0 C41.91 0 83.82 0 127 0 C127 1.32 127 2.64 127 4 C122.05 4 117.1 4 112 4 C112 7.3 112 10.6 112 14 C75.04 14 38.08 14 0 14 C0 9.38 0 4.76 0 0 Z " fill="#000000" transform="translate(430,107)"/>
<path d="M0 0 C8.45620119 7.70489409 13.28937153 18.38001672 14.12890625 29.6875 C14.62017522 44.70190805 10.5164471 56.36635558 0.31640625 67.3203125 C-2.34489722 69.88107784 -4.29587235 71.2043967 -8.12109375 71.3203125 C-8.12109375 70.6603125 -8.12109375 70.0003125 -8.12109375 69.3203125 C-11.09109375 68.8253125 -11.09109375 68.8253125 -14.12109375 68.3203125 C-13.62609375 66.8353125 -13.62609375 66.8353125 -13.12109375 65.3203125 C-14.11109375 64.3303125 -14.11109375 64.3303125 -15.12109375 63.3203125 C-14.12109375 62.3203125 -14.12109375 62.3203125 -11.05859375 62.2578125 C-10.08921875 62.2784375 -9.11984375 62.2990625 -8.12109375 62.3203125 C-8.12109375 61.6603125 -8.12109375 61.0003125 -8.12109375 60.3203125 C-8.90484375 60.5059375 -9.68859375 60.6915625 -10.49609375 60.8828125 C-13.12109375 61.3203125 -13.12109375 61.3203125 -15.12109375 60.3203125 C-13.76263086 55.97323125 -11.40549962 52.94657665 -8.55859375 49.48046875 C-3.9419519 42.54296076 -4.41364994 34.32116511 -5.12109375 26.3203125 C-6.07899674 23.03994661 -7.40331664 20.26059522 -9.12109375 17.3203125 C-9.79425195 15.99024474 -10.46274353 14.65777174 -11.12109375 13.3203125 C-9.80109375 13.6503125 -8.48109375 13.9803125 -7.12109375 14.3203125 C-7.12109375 15.3103125 -7.12109375 16.3003125 -7.12109375 17.3203125 C-6.46109375 17.3203125 -5.80109375 17.3203125 -5.12109375 17.3203125 C-5.12109375 18.6403125 -5.12109375 19.9603125 -5.12109375 21.3203125 C-1.82985678 21.08522414 -1.04121655 20.22964108 1.19140625 17.6953125 C3.23321111 13.61170278 2.95037296 11.68859984 1.87890625 7.3203125 C1.38390625 5.8353125 1.38390625 5.8353125 0.87890625 4.3203125 C-0.44413092 3.9482083 -1.7784731 3.61401077 -3.12109375 3.3203125 C-3.61609375 2.3303125 -3.61609375 2.3303125 -4.12109375 1.3203125 C-5.11109375 0.9903125 -6.10109375 0.6603125 -7.12109375 0.3203125 C-7.45109375 0.9803125 -7.78109375 1.6403125 -8.12109375 2.3203125 C-8.12109375 1.3303125 -8.12109375 0.3403125 -8.12109375 -0.6796875 C-8.61609375 -2.6596875 -8.61609375 -2.6596875 -9.12109375 -4.6796875 C-12.09109375 -5.0096875 -15.06109375 -5.3396875 -18.12109375 -5.6796875 C-18.12109375 -6.3396875 -18.12109375 -6.9996875 -18.12109375 -7.6796875 C-21.35093037 -7.56925806 -24.57965901 -7.43876091 -27.80859375 -7.3046875 C-28.72060547 -7.27375 -29.63261719 -7.2428125 -30.57226562 -7.2109375 C-35.20117508 -7.00894872 -38.87112781 -6.67871546 -43.12109375 -4.6796875 C-44.11109375 -4.6796875 -45.10109375 -4.6796875 -46.12109375 -4.6796875 C-46.45109375 -3.3596875 -46.78109375 -2.0396875 -47.12109375 -0.6796875 C-48.77109375 -1.0096875 -50.42109375 -1.3396875 -52.12109375 -1.6796875 C-39.52746482 -16.03724492 -13.00763468 -10.30070518 0 0 Z M-11.12109375 69.3203125 C-10.79109375 69.9803125 -10.46109375 70.6403125 -10.12109375 71.3203125 C-10.78109375 70.9903125 -11.44109375 70.6603125 -12.12109375 70.3203125 C-11.79109375 69.9903125 -11.46109375 69.6603125 -11.12109375 69.3203125 Z " fill="#B71410" transform="translate(420.12109375,181.6796875)"/>
<path d="M0 0 C5.61 0 11.22 0 17 0 C17 37.62 17 75.24 17 114 C72.935 114.495 72.935 114.495 130 115 C130 120.28 130 125.56 130 131 C129 132 129 132 126.86231136 132.12304783 C125.9119428 132.12212604 124.96157423 132.12120424 123.98240662 132.12025452 C122.89787673 132.12163201 121.81334684 132.12300951 120.69595242 132.12442875 C118.88857145 132.11903159 118.88857145 132.11903159 117.04467773 132.11352539 C115.76588525 132.11364593 114.48709276 132.11376646 113.16954899 132.11389065 C109.6992129 132.11411712 106.22891105 132.1083063 102.75858307 132.10128021 C99.50641471 132.09560031 96.25424792 132.09531791 93.0020752 132.09460449 C83.48054557 132.08934971 73.95902236 132.07538865 64.4375 132.0625 C43.173125 132.041875 21.90875 132.02125 0 132 C0 88.44 0 44.88 0 0 Z M1 2 C1 44.57 1 87.14 1 131 C43.24 131 85.48 131 129 131 C129 126.05 129 121.1 129 116 C91.38 116 53.76 116 15 116 C15 78.38 15 40.76 15 2 C10.38 2 5.76 2 1 2 Z " fill="#C1C1C1" transform="translate(47,181)"/>
<path d="M0 0 C3.07184758 3.70172169 5.06821752 7.84044699 7.1875 12.125 C7.55552734 12.85332031 7.92355469 13.58164063 8.30273438 14.33203125 C11 19.74657931 11 19.74657931 11 22 C11.66 22 12.32 22 13 22 C13.33 20.35 13.66 18.7 14 17 C14.84051229 19.35343441 15.08353007 20.68444196 14.4375 23.125 C12.3150074 25.8934686 10.37555171 26.33812712 7 27 C5.35 26.34 3.7 25.68 2 25 C1.67 28.96 1.34 32.92 1 37 C-2.03822286 32.94903618 -4.37052314 28.88494491 -6.75 24.4375 C-7.38615234 23.28604492 -7.38615234 23.28604492 -8.03515625 22.11132812 C-8.62876953 21.00241211 -8.62876953 21.00241211 -9.234375 19.87109375 C-9.59756836 19.20005615 -9.96076172 18.52901855 -10.33496094 17.83764648 C-11 16 -11 16 -10 13 C-8.02 13.495 -8.02 13.495 -6 14 C-5.67 12.68 -5.34 11.36 -5 10 C-4.01 10 -3.02 10 -2 10 C-1.67 9.34 -1.34 8.68 -1 8 C-0.34 8 0.32 8 1 8 C0.67 5.36 0.34 2.72 0 0 Z " fill="#B71612" transform="translate(204,211)"/>
<path d="M0 0 C2.64 0 5.28 0 8 0 C8.28875 0.94875 8.5775 1.8975 8.875 2.875 C9.76825109 6.05211578 9.76825109 6.05211578 12 8 C14.79903097 14.62928387 13.78120556 20.97970678 13 28 C11.68 28.33 10.36 28.66 9 29 C9 29.66 9 30.32 9 31 C6.36 30.67 3.72 30.34 1 30 C0.67 29.01 0.34 28.02 0 27 C-0.66 27 -1.32 27 -2 27 C-2 26.34 -2 25.68 -2 25 C-1.01 24.34 -0.02 23.68 1 23 C1.36362818 20.79274927 1.36362818 20.79274927 1.1875 18.375 C1.14689453 17.14910156 1.14689453 17.14910156 1.10546875 15.8984375 C1.07066406 15.27195313 1.03585937 14.64546875 1 14 C0.34 14 -0.32 14 -1 14 C-0.67 9.38 -0.34 4.76 0 0 Z " fill="#B70F09" transform="translate(320,180)"/>
<path d="M0 0 C0.99 0 1.98 0 3 0 C2.67 2.97 2.34 5.94 2 9 C2.66 9 3.32 9 4 9 C4.33 11.97 4.66 14.94 5 18 C3.35 18.33 1.7 18.66 0 19 C0.33 19.99 0.66 20.98 1 22 C-2.63195496 24.42130331 -4.38349348 24.21022785 -8.6875 24.125 C-9.86699219 24.10695313 -11.04648437 24.08890625 -12.26171875 24.0703125 C-13.16535156 24.04710937 -14.06898438 24.02390625 -15 24 C-15.54196177 18.94169015 -15.45009043 16.00775192 -12.4375 11.8125 C-9.36167574 8.1083601 -6.09369946 5.51919967 -2 3 C-1.34 3 -0.68 3 0 3 C0 2.01 0 1.02 0 0 Z " fill="#B50F0A" transform="translate(468,233)"/>
<path d="M0 0 C2 2 2 2 2 3 C3.32 3.33 4.64 3.66 6 4 C6 4.66 6 5.32 6 6 C6.598125 6.04125 7.19625 6.0825 7.8125 6.125 C10 7 10 7 11.8125 9.75 C13.12892551 13.35284876 13.37623514 14.47339745 12 18 C10.45016607 20.42892007 8.7729368 22.72985583 7 25 C6.01 24.67 5.02 24.34 4 24 C4 22.68 4 21.36 4 20 C3.34 20 2.68 20 2 20 C2 19.01 2 18.02 2 17 C1.0925 16.773125 0.185 16.54625 -0.75 16.3125 C-4.44888324 14.81872023 -5.77905658 13.24599423 -8 10 C-7.67 9.34 -7.34 8.68 -7 8 C-6.01 8 -5.02 8 -4 8 C-3.896875 7.4225 -3.79375 6.845 -3.6875 6.25 C-2.90207202 3.67950842 -1.69495803 2.06342716 0 0 Z " fill="#B7100C" transform="translate(411,179)"/>
<path d="M0 0 C2.69990662 1.79993774 4.5418865 3.083773 6 6 C6.41254274 9.71288464 6.26218686 11.54621504 4.375 14.8125 C1.47608819 17.48255035 -0.08583725 17.92011913 -4 18 C-7.711694 17.22313381 -8.72141734 16.40858789 -10.875 13.25 C-12.173112 9.49989866 -12.30097663 7.74030781 -11 4 C-7.57580017 0.28229732 -5.01234874 -0.83539146 0 0 Z " fill="#B5100B" transform="translate(395,207)"/>
<path d="M0 0 C5.28 0 10.56 0 16 0 C16.33 1.65 16.66 3.3 17 5 C16.01 4.34 15.02 3.68 14 3 C9.71 2.67 5.42 2.34 1 2 C1.33 28.73 1.66 55.46 2 83 C5.96 83.33 9.92 83.66 14 84 C14 68.49 14 52.98 14 37 C14.33 37 14.66 37 15 37 C15 52.84 15 68.68 15 85 C10.05 85 5.1 85 0 85 C0 56.95 0 28.9 0 0 Z " fill="#A11915" transform="translate(170,173)"/>
<path d="M0 0 C2.64590014 -0.02684679 5.29153096 -0.04676357 7.9375 -0.0625 C8.69224609 -0.07087891 9.44699219 -0.07925781 10.22460938 -0.08789062 C12.14994313 -0.09652441 14.07535581 -0.05224333 16 0 C17 1 17 1 17.12025452 3.58790588 C17.1169236 5.31665199 17.1169236 5.31665199 17.11352539 7.08032227 C17.11344986 8.38159561 17.11337433 9.68286896 17.11329651 11.02357483 C17.10818909 12.45451902 17.10297308 13.88546282 17.09765625 15.31640625 C17.09579203 16.7722926 17.09436815 18.22817957 17.09336853 19.68406677 C17.08954365 23.52279379 17.07971364 27.36148319 17.06866455 31.20019531 C17.05844978 35.11457816 17.05387077 39.02896706 17.04882812 42.94335938 C17.03809133 50.62892541 17.02049479 58.31445265 17 66 C11.06 66 5.12 66 -1 66 C-1.33 59.4 -1.66 52.8 -2 46 C-2.66 46.66 -3.32 47.32 -4 48 C-3.44271087 44.65626525 -2.64826111 41.96687001 -1 39 C-0.34 39 0.32 39 1 39 C1 47.58 1 56.16 1 65 C5.95 65 10.9 65 16 65 C15.67 44.54 15.34 24.08 15 3 C10.05 2.67 5.1 2.34 0 2 C0 2.99 0 3.98 0 5 C-0.66 5 -1.32 5 -2 5 C-1.34 3.35 -0.68 1.7 0 0 Z " fill="#EAA09E" transform="translate(245,172)"/>
<path d="M0 0 C1.05148224 0.00303635 1.05148224 0.00303635 2.12420654 0.00613403 C2.84340271 0.00517731 3.56259888 0.00422058 4.30358887 0.00323486 C5.83022143 0.00255283 7.35685686 0.00440871 8.88348389 0.00857544 C11.20988589 0.01389238 13.53609208 0.00864747 15.86248779 0.00222778 C17.34556113 0.00288917 18.82863435 0.00417159 20.31170654 0.00613403 C21.3510434 0.00309769 21.3510434 0.00309769 22.41137695 0 C26.06083468 0.01750728 29.43423911 0.27519887 32.98358154 1.13894653 C32.98358154 1.46894653 32.98358154 1.79894653 32.98358154 2.13894653 C20.77358154 2.46894653 8.56358154 2.79894653 -4.01641846 3.13894653 C-4.34641846 18.97894653 -4.67641846 34.81894653 -5.01641846 51.13894653 C6.20358154 51.13894653 17.42358154 51.13894653 28.98358154 51.13894653 C28.98358154 51.46894653 28.98358154 51.79894653 28.98358154 52.13894653 C17.43358154 52.13894653 5.88358154 52.13894653 -6.01641846 52.13894653 C-6.03932124 44.89403439 -6.05925023 37.64924684 -6.0713501 30.40432739 C-6.07639202 27.9375262 -6.08322536 25.47072801 -6.09185791 23.00393677 C-6.1039297 19.46690124 -6.10964802 15.92990508 -6.11407471 12.39285278 C-6.11923599 11.28245132 -6.12439728 10.17204987 -6.12971497 9.02799988 C-6.1297905 8.00701706 -6.12986603 6.98603424 -6.12994385 5.93411255 C-6.13216446 5.03032364 -6.13438507 4.12653473 -6.13667297 3.19535828 C-5.89932346 -0.86343588 -3.49399155 0.0170894 0 0 Z " fill="#E2A5A2" transform="translate(283.01641845703125,171.86105346679688)"/>
<path d="M0 0 C1.65 0 3.3 0 5 0 C5.33 0.66 5.66 1.32 6 2 C6.99 2 7.98 2 9 2 C9 7.61 9 13.22 9 19 C7.35 19.66 5.7 20.32 4 21 C4.66 20.01 5.32 19.02 6 18 C6.55396415 14.43160753 6.74798017 11.1041612 4.6875 8.0625 C0.70092026 5.55243127 -3.63430638 5.68039147 -8.1875 5.4375 C-10.765625 5.293125 -13.34375 5.14875 -16 5 C-16 10.94 -16 16.88 -16 23 C-16.33 23 -16.66 23 -17 23 C-17 16.4 -17 9.8 -17 3 C-8.585 2.505 -8.585 2.505 0 2 C0 1.34 0 0.68 0 0 Z " fill="#D2706A" transform="translate(311,184)"/>
<path d="M0 0 C2.69990662 1.79993774 4.5418865 3.083773 6 6 C6.41254274 9.71288464 6.26218686 11.54621504 4.375 14.8125 C1.47608819 17.48255035 -0.08583725 17.92011913 -4 18 C-7.711694 17.22313381 -8.72141734 16.40858789 -10.875 13.25 C-12.173112 9.49989866 -12.30097663 7.74030781 -11 4 C-7.57580017 0.28229732 -5.01234874 -0.83539146 0 0 Z M-5 2 C-6.93395001 4.90092502 -7.30131941 5.89674737 -7.625 9.1875 C-7.74875 10.445625 -7.8725 11.70375 -8 13 C-7.01 13.33 -6.02 13.66 -5 14 C-4.67 14.66 -4.34 15.32 -4 16 C-2.35 16 -0.7 16 1 16 C1.33 14.68 1.66 13.36 2 12 C2.66 12 3.32 12 4 12 C4 9.36 4 6.72 4 4 C0.62902617 2.50178941 -1.20442119 2 -5 2 Z " fill="#A8140F" transform="translate(395,207)"/>
<path d="M0 0 C-3.74235319 2.44989101 -7.44225419 2.23086143 -11.75 2.125 C-12.44738281 2.11597656 -13.14476562 2.10695312 -13.86328125 2.09765625 C-15.57566958 2.07419888 -17.28788004 2.03833104 -19 2 C-19 6.62 -19 11.24 -19 16 C-6.625 15.505 -6.625 15.505 6 15 C6.33 13.68 6.66 12.36 7 11 C8.32 11.33 9.64 11.66 11 12 C11 11.34 11 10.68 11 10 C12.32 10.66 13.64 11.32 15 12 C3.52260841 18.26039541 -7.12938835 18.58134065 -20 18 C-21 17 -21 17 -21.09765625 13.40234375 C-21.0909822 11.91403133 -21.07902183 10.42573568 -21.0625 8.9375 C-21.05798828 8.17888672 -21.05347656 7.42027344 -21.04882812 6.63867188 C-21.0370068 4.75908129 -21.01907078 2.87953101 -21 1 C-18.43761495 0.83138242 -15.87511576 0.66504227 -13.3125 0.5 C-12.59126953 0.45230469 -11.87003906 0.40460938 -11.12695312 0.35546875 C-7.41171286 0.11796481 -3.72305126 -0.05874637 0 0 Z " fill="#DA9090" transform="translate(314,241)"/>
<path d="M0 0 C1.77794195 3.30980197 2.22445057 5.47087821 2.125 9.25 C2.10695312 10.14203125 2.08890625 11.0340625 2.0703125 11.953125 C2.04710937 12.62859375 2.02390625 13.3040625 2 14 C1.01 14.495 1.01 14.495 0 15 C-0.33 13.68 -0.66 12.36 -1 11 C-1.99 11.495 -1.99 11.495 -3 12 C-3.65772428 15.02934491 -3.65772428 15.02934491 -4 18 C-4.66 18 -5.32 18 -6 18 C-5.938125 19.11375 -5.87625 20.2275 -5.8125 21.375 C-5.874375 22.57125 -5.93625 23.7675 -6 25 C-6.99 25.66 -7.98 26.32 -9 27 C-9.34342449 28.33076989 -9.67619874 29.66431979 -10 31 C-11.4375 32.75 -11.4375 32.75 -13 34 C-13.66 34 -14.32 34 -15 34 C-12.66080593 26.26014033 -9.36547181 19.18991479 -5.8125 11.9375 C-5.25369141 10.78572266 -4.69488281 9.63394531 -4.11914062 8.44726562 C-2.75097933 5.62908723 -1.37784257 2.8134543 0 0 Z " fill="#C8625F" transform="translate(236,190)"/>
<path d="M0 0 C1.32 0.33 2.64 0.66 4 1 C4 1.99 4 2.98 4 4 C4.66 4 5.32 4 6 4 C6 5.32 6 6.64 6 8 C6.66 8 7.32 8 8 8 C9.92075762 15.20284108 12.05189679 24.24117783 8.984375 31.35546875 C8.65953125 31.89816406 8.3346875 32.44085938 8 33 C7.34 33 6.68 33 6 33 C6 35.31 6 37.62 6 40 C5.2575 40.28875 4.515 40.5775 3.75 40.875 C1.43099801 41.82368263 -0.76932676 42.86559779 -3 44 C-2.60167969 43.5153125 -2.20335937 43.030625 -1.79296875 42.53125 C5.67508406 33.08261871 7.21204182 25.14648361 6 13 C5.03594807 9.72312865 3.71713611 6.93918553 2 4 C1.3268418 2.66993224 0.65835022 1.33745924 0 0 Z " fill="#B84844" transform="translate(409,195)"/>
<path d="M0 0 C3.93846154 3.32307692 3.93846154 3.32307692 4.25 6.75 C4.1675 7.4925 4.085 8.235 4 9 C2.68 8.34 1.36 7.68 0 7 C-0.33 9.64 -0.66 12.28 -1 15 C-1.99 15.33 -2.98 15.66 -4 16 C-5.10636395 18.39068734 -5.10636395 18.39068734 -6 21 C-6.66 21.99 -7.32 22.98 -8 24 C-8.39387788 26.32387947 -8.73486085 28.65793749 -9 31 C-9.99 30.67 -10.98 30.34 -12 30 C-10.98032653 24.13206777 -8.73623489 18.83358251 -6.5625 13.3125 C-6.15451172 12.25482422 -5.74652344 11.19714844 -5.32617188 10.10742188 C-4.73352539 8.59438477 -4.73352539 8.59438477 -4.12890625 7.05078125 C-3.76869385 6.12950439 -3.40848145 5.20822754 -3.03735352 4.2590332 C-2 2 -2 2 0 0 Z " fill="#AD1811" transform="translate(120,172)"/>
<path d="M0 0 C0.66 0.33 1.32 0.66 2 1 C1.29875 1.5775 0.5975 2.155 -0.125 2.75 C-4.37561522 6.92753874 -6.52607262 12.66957915 -9 18 C-9.66 18 -10.32 18 -11 18 C-10.95875 19.27875 -10.9175 20.5575 -10.875 21.875 C-10.8046875 24.0546875 -10.8046875 24.0546875 -11 26 C-11.66 26.66 -12.32 27.32 -13 28 C-13.30675232 30.89967757 -13.51173371 33.71783178 -13.625 36.625 C-13.66367187 37.42679688 -13.70234375 38.22859375 -13.7421875 39.0546875 C-13.83653931 41.03607556 -13.91936215 43.01800645 -14 45 C-14.33 45 -14.66 45 -15 45 C-15.57187848 28.780891 -14.85489384 15.98704874 -3.50390625 3.33203125 C-2.370662 2.18594571 -1.19101587 1.08592623 0 0 Z " fill="#D3817F" transform="translate(366,180)"/>
<path d="M0 0 C0.99 0 1.98 0 3 0 C1.53244631 4.84292716 -1.00150408 8.88522592 -5 12 C-8.34108492 12.83293657 -11.45826219 12.67162887 -14.875 12.4375 C-15.75414062 12.40591797 -16.63328125 12.37433594 -17.5390625 12.34179688 C-19.69416087 12.25980944 -21.847526 12.13426323 -24 12 C-24 8 -24 8 -22 5.75 C-21.34 5.1725 -20.68 4.595 -20 4 C-20 5.98 -20 7.96 -20 10 C-17.87420987 9.94011859 -15.74921587 9.85137256 -13.625 9.75 C-12.44164062 9.70359375 -11.25828125 9.6571875 -10.0390625 9.609375 C-9.03617187 9.40828125 -8.03328125 9.2071875 -7 9 C-5.6615642 7.07428894 -5.6615642 7.07428894 -5 5 C-2.875 4.25 -2.875 4.25 -1 4 C-0.67 2.68 -0.34 1.36 0 0 Z " fill="#CB807E" transform="translate(473,247)"/>
<path d="M0 0 C0.33 0.66 0.66 1.32 1 2 C0.21142578 4.04711914 0.21142578 4.04711914 -1.0546875 6.53515625 C-1.72951172 7.87223633 -1.72951172 7.87223633 -2.41796875 9.23632812 C-2.89878906 10.16896484 -3.37960938 11.10160156 -3.875 12.0625 C-4.34808594 12.99900391 -4.82117188 13.93550781 -5.30859375 14.90039062 C-8.83224411 21.83224411 -8.83224411 21.83224411 -10 23 C-12.69654854 23.07319621 -15.36691458 23.09242537 -18.0625 23.0625 C-18.82111328 23.05798828 -19.57972656 23.05347656 -20.36132812 23.04882812 C-22.24091871 23.0370068 -24.12046899 23.01907078 -26 23 C-26 21.68 -26 20.36 -26 19 C-25.67 19.99 -25.34 20.98 -25 22 C-20.38 22 -15.76 22 -11 22 C-11 20.68 -11 19.36 -11 18 C-10.34 18 -9.68 18 -9 18 C-9 16.35 -9 14.7 -9 13 C-8.34 13 -7.68 13 -7 13 C-7 11.35 -7 9.7 -7 8 C-6.34 8 -5.68 8 -5 8 C-5 6.68 -5 5.36 -5 4 C-4.34 4 -3.68 4 -3 4 C-3 3.34 -3 2.68 -3 2 C-2.01 1.34 -1.02 0.68 0 0 Z " fill="#CF7470" transform="translate(234,232)"/>
<path d="M0 0 C-0.66 0.66 -1.32 1.32 -2 2 C-2 1.34 -2 0.68 -2 0 C-4.97 -0.33 -7.94 -0.66 -11 -1 C-11 -1.66 -11 -2.32 -11 -3 C-14.22983662 -2.88957056 -17.45856526 -2.75907341 -20.6875 -2.625 C-21.59951172 -2.5940625 -22.51152344 -2.563125 -23.45117188 -2.53125 C-28.08008133 -2.32926122 -31.75003406 -1.99902796 -36 0 C-36.99 0 -37.98 0 -39 0 C-39.33 1.32 -39.66 2.64 -40 4 C-41.65 3.67 -43.3 3.34 -45 3 C-34.6943462 -8.74911671 -12.41195566 -6.76480996 0 0 Z " fill="#D79895" transform="translate(413,177)"/>
<path d="M0 0 C0.66 0 1.32 0 2 0 C2 8.58 2 17.16 2 26 C6.95 26 11.9 26 17 26 C17 26.33 17 26.66 17 27 C11.39 27 5.78 27 0 27 C-0.33 20.4 -0.66 13.8 -1 7 C-1.66 7.66 -2.32 8.32 -3 9 C-2.44271087 5.65626525 -1.64826111 2.96687001 0 0 Z " fill="#DF9B9A" transform="translate(244,211)"/>
<path d="M0 0 C1.35239152 5.0394793 0.94086687 9.55374615 -0.9375 14.4375 C-2 16 -2 16 -4 17 C-4.5029191 18.92155793 -4.92839773 20.86371116 -5.3125 22.8125 C-6.65942963 28.65150939 -6.65942963 28.65150939 -9.6875 31.75 C-10.450625 32.1625 -11.21375 32.575 -12 33 C-9.88804509 25.43137471 -7.22216627 18.17004844 -4.3125 10.875 C-3.68891602 9.2971875 -3.68891602 9.2971875 -3.05273438 7.6875 C-2.03880049 5.12352925 -1.02117166 2.56109468 0 0 Z " fill="#CE7A73" transform="translate(107,202)"/>
<path d="M0 0 C1.670625 0.061875 1.670625 0.061875 3.375 0.125 C3.375 0.785 3.375 1.445 3.375 2.125 C1.395 2.455 -0.585 2.785 -2.625 3.125 C-1.635 4.61 -1.635 4.61 -0.625 6.125 C-0.955 6.455 -1.285 6.785 -1.625 7.125 C-0.635 7.785 0.355 8.445 1.375 9.125 C1.375 10.115 1.375 11.105 1.375 12.125 C-1.265 12.125 -3.905 12.125 -6.625 12.125 C-7.8125 10.5 -7.8125 10.5 -8.625 8.125 C-5.45017483 0.18793706 -5.45017483 0.18793706 0 0 Z " fill="#B50F08" transform="translate(408.625,241.875)"/>
<path d="M0 0 C0.85078125 0.00322266 1.7015625 0.00644531 2.578125 0.00976562 C3.46757813 0.01814453 4.35703125 0.02652344 5.2734375 0.03515625 C6.170625 0.03966797 7.0678125 0.04417969 7.9921875 0.04882812 C10.21100398 0.06063034 12.42968768 0.0770947 14.6484375 0.09765625 C14.9784375 1.08765625 15.3084375 2.07765625 15.6484375 3.09765625 C14.43359375 5.140625 14.43359375 5.140625 12.7109375 7.28515625 C12.14503906 8.00058594 11.57914063 8.71601563 10.99609375 9.453125 C10.55136719 9.99582031 10.10664062 10.53851563 9.6484375 11.09765625 C8.6484375 8.09765625 8.6484375 8.09765625 8.6484375 6.09765625 C9.6384375 6.09765625 10.6284375 6.09765625 11.6484375 6.09765625 C11.6484375 4.77765625 11.6484375 3.45765625 11.6484375 2.09765625 C3.2334375 2.59265625 3.2334375 2.59265625 -5.3515625 3.09765625 C-5.3515625 4.08765625 -5.3515625 5.07765625 -5.3515625 6.09765625 C-6.3415625 6.09765625 -7.3315625 6.09765625 -8.3515625 6.09765625 C-6.49232857 0.91836173 -5.45873443 -0.03639156 0 0 Z " fill="#CA7E7B" transform="translate(513.3515625,171.90234375)"/>
<path d="M0 0 C0 0.99 0 1.98 0 3 C-2.5 5.1875 -2.5 5.1875 -5 7 C-2.36 9.31 0.28 11.62 3 14 C2.67 14.66 2.34 15.32 2 16 C-0.5 14.625 -0.5 14.625 -3 13 C-3 12.34 -3 11.68 -3 11 C-5.31 11.33 -7.62 11.66 -10 12 C-9.125 5.125 -9.125 5.125 -8 4 C-6.33382885 3.95936168 -4.66611905 3.957279 -3 4 C-3 3.01 -3 2.02 -3 1 C-2.01 0.67 -1.02 0.34 0 0 Z " fill="#C04642" transform="translate(332,208)"/>
<path d="M0 0 C2.66666667 2.66666667 5.33333333 5.33333333 8 8 C9.65 5.69 11.3 3.38 13 1 C13.33 2.32 13.66 3.64 14 5 C13.01 5.33 12.02 5.66 11 6 C11 7.65 11 9.3 11 11 C8.49484216 12.25257892 6.77924105 12.13557273 4 12 C3.01 11.67 2.02 11.34 1 11 C1.20625 10.401875 1.4125 9.80375 1.625 9.1875 C2.30671915 6.71549154 2.30671915 6.71549154 0 4 C0 2.68 0 1.36 0 0 Z " fill="#CA645E" transform="translate(481,191)"/>
<path d="M0 0 C-0.42335385 6.49142565 -2.91099799 11.33492989 -6 17 C-6.66 15.68 -7.32 14.36 -8 13 C-7.67 13 -7.34 13 -7 13 C-7.0825 11.783125 -7.165 10.56625 -7.25 9.3125 C-7.25596188 5.95596404 -7.00961689 5.01591762 -5.1875 2 C-3 0 -3 0 0 0 Z " fill="#C44F4C" transform="translate(433,224)"/>
<path d="M0 0 C6.53253673 5.22602938 9.86348303 13.82441019 11 22 C11.06774144 24.61481958 11.09500258 27.19979256 11.0625 29.8125 C11.05798828 30.50537109 11.05347656 31.19824219 11.04882812 31.91210938 C11.03713156 33.60811068 11.01919924 35.30406703 11 37 C10.67 37 10.34 37 10 37 C9.67 30.73 9.34 24.46 9 18 C8.34 18 7.68 18 7 18 C6.87625 17.195625 6.7525 16.39125 6.625 15.5625 C6.41875 14.716875 6.2125 13.87125 6 13 C5.34 12.67 4.68 12.34 4 12 C4 10.35 4 8.7 4 7 C3.34 7 2.68 7 2 7 C1.34 4.69 0.68 2.38 0 0 Z " fill="#DC9592" transform="translate(423,186)"/>
<path d="M0 0 C0.33 0 0.66 0 1 0 C1.17700355 4.60209225 1.10814567 6.78370866 -1 11 C3.95 11 8.9 11 14 11 C14.33 10.34 14.66 9.68 15 9 C15 9.99 15 10.98 15 12 C11.81175432 13.59412284 8.37103338 13.10174735 4.875 13.0625 C4.12089844 13.05798828 3.36679688 13.05347656 2.58984375 13.04882812 C0.72652873 13.03703499 -1.13674555 13.01909942 -3 13 C-4.23593891 9.29218328 -3.5678132 8.32489747 -2.0625 4.8125 C-1.68222656 3.91144531 -1.30195312 3.01039063 -0.91015625 2.08203125 C-0.60980469 1.39496094 -0.30945313 0.70789063 0 0 Z " fill="#D18D8A" transform="translate(90,246)"/>
<path d="M0 0 C0.66 0 1.32 0 2 0 C3.125 6.625 3.125 6.625 2 10 C2.66 10 3.32 10 4 10 C4 7.36 4 4.72 4 2 C4.33 2 4.66 2 5 2 C5 7.94 5 13.88 5 20 C4.67 20 4.34 20 4 20 C4 18.02 4 16.04 4 14 C2.68 14 1.36 14 0 14 C0 9.38 0 4.76 0 0 Z " fill="#B70F06" transform="translate(288,186)"/>
<path d="M0 0 C2.672336 3.56311466 3.77263971 5.84585747 5 10 C5.66 10 6.32 10 7 10 C7.33 8.35 7.66 6.7 8 5 C8.84051229 7.35343441 9.08353007 8.68444196 8.4375 11.125 C7 13 7 13 1 15 C0.67 10.05 0.34 5.1 0 0 Z " fill="#C95351" transform="translate(210,223)"/>
<path d="M0 0 C0.33 0 0.66 0 1 0 C1.36981234 7.14970521 0.01221221 10.98168168 -4 17 C-4.39387788 19.32387947 -4.73486085 21.65793749 -5 24 C-5.99 23.67 -6.98 23.34 -8 23 C-7.26905294 17.94514073 -5.31619096 13.40096821 -3.4375 8.6875 C-3.10814453 7.85154297 -2.77878906 7.01558594 -2.43945312 6.15429688 C-1.63001123 4.10136454 -0.81676543 2.05002714 0 0 Z " fill="#C7605D" transform="translate(116,179)"/>
<path d="M0 0 C0.33 0 0.66 0 1 0 C1 6.6 1 13.2 1 20 C0.34 20 -0.32 20 -1 20 C-1 22.31 -1 24.62 -1 27 C-1.7425 27.28875 -2.485 27.5775 -3.25 27.875 C-5.56900199 28.82368263 -7.76932676 29.86559779 -10 31 C-9.60167969 30.5153125 -9.20335937 30.030625 -8.79296875 29.53125 C-1.34440718 20.10727915 -0.43861002 11.61560339 0 0 Z " fill="#E49F9D" transform="translate(416,208)"/>
<path d="M0 0 C3.08090121 4.62135182 3.46450378 9.17531486 2.56640625 14.63671875 C1.1166957 20.11613319 -0.59151427 23.42555211 -5 27 C-5.33 25.68 -5.66 24.36 -6 23 C-5.01 23 -4.02 23 -3 23 C-2.67 20.69 -2.34 18.38 -2 16 C-1.34 16 -0.68 16 0 16 C0 10.72 0 5.44 0 0 Z " fill="#D68A89" transform="translate(335,224)"/>
<path d="M0 0 C7.26 0 14.52 0 22 0 C21.67 0.66 21.34 1.32 21 2 C16.05 2 11.1 2 6 2 C6.66 4.97 7.32 7.94 8 11 C4.05551594 7.37533897 2.50816459 5.01632918 0 0 Z " fill="#BD6664" transform="translate(459,189)"/>
<path d="M0 0 C-0.4811491 5.77378925 -2.18467181 9.95859836 -5 15 C-5.33 15 -5.66 15 -6 15 C-7.70617557 7.39822764 -7.70617557 7.39822764 -6.0234375 4.06640625 C-2.68839928 0 -2.68839928 0 0 0 Z " fill="#C44D4B" transform="translate(241,217)"/>
<path d="M0 0 C2.475 0.495 2.475 0.495 5 1 C5 1.99 5 2.98 5 4 C6.98 4.66 8.96 5.32 11 6 C11 6.99 11 7.98 11 9 C11.66 9 12.32 9 13 9 C13.33 9.99 13.66 10.98 14 12 C8.70684048 10.51129888 4.73092904 6.91398865 1 3 C0.67 2.01 0.34 1.02 0 0 Z " fill="#C86663" transform="translate(359,242)"/>
<path d="M0 0 C1.90608098 3.21182149 2.22266247 5.53882603 2.125 9.25 C2.10695312 10.14203125 2.08890625 11.0340625 2.0703125 11.953125 C2.03550781 12.96632812 2.03550781 12.96632812 2 14 C1.01 14.495 1.01 14.495 0 15 C-0.33 13.68 -0.66 12.36 -1 11 C-1.66 11 -2.32 11 -3 11 C-2.53199289 6.94393835 -2.12046792 3.53411321 0 0 Z " fill="#BF3B36" transform="translate(236,190)"/>
<path d="M0 0 C2 1.125 2 1.125 4 3 C4.25 6.1875 4.25 6.1875 4 9 C4.66 9 5.32 9 6 9 C7.08318169 14.3212615 8.152874 19.63486869 9 25 C6.811636 22.811636 6.28365452 21.4227652 5.2734375 18.53515625 C4.9640625 17.65279297 4.6546875 16.77042969 4.3359375 15.86132812 C4.01882812 14.93771484 3.70171875 14.01410156 3.375 13.0625 C2.88773437 11.68288086 2.88773437 11.68288086 2.390625 10.27539062 C0 3.38978795 0 3.38978795 0 0 Z " fill="#D88885" transform="translate(123,218)"/>
<path d="M0 0 C2.375 2 2.375 2 4 4 C3.39671875 3.90460938 2.7934375 3.80921875 2.171875 3.7109375 C1.37265625 3.60007813 0.5734375 3.48921875 -0.25 3.375 C-1.03890625 3.25898438 -1.8278125 3.14296875 -2.640625 3.0234375 C-5.40848997 2.99594215 -6.76709037 3.36519116 -9 5 C-9.69632215 6.95365445 -9.69632215 6.95365445 -9.75 9.125 C-9.8325 10.40375 -9.915 11.6825 -10 13 C-12 10 -12 10 -11.9375 7.0625 C-10.11833124 1.11988204 -6.03056258 -1.02647874 0 0 Z " fill="#D68A88" transform="translate(395,207)"/>
<path d="M0 0 C0.66 0.33 1.32 0.66 2 1 C1.29875 1.5775 0.5975 2.155 -0.125 2.75 C-4.37561522 6.92753874 -6.52607262 12.66957915 -9 18 C-9.33 18 -9.66 18 -10 18 C-10.4688666 14.87422267 -10.42258876 12.72088671 -8.8046875 9.9609375 C-6.13226429 6.37532445 -3.29164863 3.03844489 0 0 Z " fill="#CB6C69" transform="translate(366,180)"/>
<path d="M0 0 C2.74792483 3.40219265 6 7.48464588 6 12 C5.21625 11.79375 4.4325 11.5875 3.625 11.375 C2.75875 11.25125 1.8925 11.1275 1 11 C0.34 11.66 -0.32 12.32 -1 13 C-1.33 12.01 -1.66 11.02 -2 10 C-1.67 9.34 -1.34 8.68 -1 8 C-0.34 8 0.32 8 1 8 C0.67 5.36 0.34 2.72 0 0 Z " fill="#C44A47" transform="translate(204,211)"/>
<path d="M0 0 C2.912575 0.08566397 4.56798024 0.57910955 6.66796875 2.625 C8.16091772 4.38391375 9.60436262 6.16313019 11 8 C8.0625 7.625 8.0625 7.625 5 7 C4.67 6.34 4.34 5.68 4 5 C3.01 4.67 2.02 4.34 1 4 C0.67 4.66 0.34 5.32 0 6 C0 4 0 2 0 0 Z " fill="#BD4540" transform="translate(412,178)"/>
<path d="M0 0 C2.18975773 3.28463659 2.99806563 6.20696275 4 10 C0.93466836 11.53266582 -2.26754272 11.10276471 -5.625 11.0625 C-6.33140625 11.05798828 -7.0378125 11.05347656 -7.765625 11.04882812 C-9.51045275 11.03703875 -11.255237 11.01910324 -13 11 C-13 10.67 -13 10.34 -13 10 C-7.06 9.505 -7.06 9.505 -1 9 C-0.67 6.03 -0.34 3.06 0 0 Z " fill="#E0AAAB" transform="translate(151,248)"/>
<path d="M0 0 C1.44504567 4.60739198 0.70295453 8.53793165 -1 13 C-3.625 15.5625 -3.625 15.5625 -6 17 C-4.33846988 11.14340094 -2.52958084 5.5409866 0 0 Z " fill="#D17977" transform="translate(101,218)"/>
<path d="M0 0 C2 2 2 2 2.375 4.8125 C1.90647335 8.7949765 0.93704498 10.29482699 -2 13 C-5.0625 13.9375 -5.0625 13.9375 -8 14 C-8.99 13.34 -9.98 12.68 -11 12 C-8.36 11.67 -5.72 11.34 -3 11 C-2.67 10.01 -2.34 9.02 -2 8 C-1.34 8 -0.68 8 0 8 C0 5.36 0 2.72 0 0 Z " fill="#DB9493" transform="translate(399,211)"/>
<path d="M0 0 C3.06398451 -0.13530844 6.12197126 -0.2342407 9.1875 -0.3125 C10.05181641 -0.35439453 10.91613281 -0.39628906 11.80664062 -0.43945312 C18.1457553 -0.5608921 18.1457553 -0.5608921 20.72900391 1.13525391 C22.11328125 2.51953125 22.11328125 2.51953125 24 5 C23.67 5.66 23.34 6.32 23 7 C22.5875 6.54625 22.175 6.0925 21.75 5.625 C17.56954779 1.74315151 13.2628771 1.60876157 7.75 1.375 C7.00492187 1.33632812 6.25984375 1.29765625 5.4921875 1.2578125 C3.6618476 1.16394892 1.83095857 1.08090282 0 1 C0 0.67 0 0.34 0 0 Z " fill="#B84945" transform="translate(294,187)"/>
<path d="M0 0 C3.93846154 3.32307692 3.93846154 3.32307692 4.25 6.75 C4.1675 7.4925 4.085 8.235 4 9 C4.66 9 5.32 9 6 9 C6 12.63 6 16.26 6 20 C5.67 20 5.34 20 5 20 C4.81824219 19.03578125 4.63648438 18.0715625 4.44921875 17.078125 C4.19785156 15.81484375 3.94648438 14.5515625 3.6875 13.25 C3.44386719 11.99703125 3.20023437 10.7440625 2.94921875 9.453125 C2.05956628 6.2166938 1.216718 4.45888047 -1 2 C-0.67 1.34 -0.34 0.68 0 0 Z " fill="#A71917" transform="translate(329,182)"/>
<path d="M0 0 C0.33 0 0.66 0 1 0 C1 2.64 1 5.28 1 8 C0.34 8 -0.32 8 -1 8 C-1 9.32 -1 10.64 -1 12 C-2.32 12.33 -3.64 12.66 -5 13 C-4.54554036 11.58208592 -4.08625056 10.16571954 -3.625 8.75 C-3.24214844 7.56664062 -3.24214844 7.56664062 -2.8515625 6.359375 C-2.04826333 4.13372042 -1.10288338 2.09068328 0 0 Z " fill="#CA6863" transform="translate(242,177)"/>
<path d="M0 0 C0.99 0.33 1.98 0.66 3 1 C3 2.65 3 4.3 3 6 C1.02 6.99 1.02 6.99 -1 8 C-2.2077558 4.37673261 -1.54311128 3.35853631 0 0 Z M-3 7 C-2.34 7.66 -1.68 8.32 -1 9 C-1.99 9.99 -2.98 10.98 -4 12 C-4.33 11.01 -4.66 10.02 -5 9 C-4.34 8.34 -3.68 7.68 -3 7 Z " fill="#B70E08" transform="translate(120,179)"/>
<path d="M0 0 C1.32 0.66 2.64 1.32 4 2 C-1.77874846 5.25711277 -6.37822074 6.69343615 -13 7 C-13 6.67 -13 6.34 -13 6 C-10.36 5.67 -7.72 5.34 -5 5 C-4.67 3.68 -4.34 2.36 -4 1 C-2.68 1.33 -1.36 1.66 0 2 C0 1.34 0 0.68 0 0 Z " fill="#CD6D68" transform="translate(325,251)"/>
<path d="M0 0 C1.65 0 3.3 0 5 0 C6.61949011 2.57213134 7.04408751 3.67669159 6.625 6.75 C6.41875 7.4925 6.2125 8.235 6 9 C4 7 2 5 0 3 C0 2.01 0 1.02 0 0 Z " fill="#C75954" transform="translate(488,229)"/>
<path d="M0 0 C2.41181064 1.20590532 4.10800978 2.77323448 6.125 4.5625 C6.84945313 5.20316406 7.57390625 5.84382812 8.3203125 6.50390625 C9.15175781 7.24447266 9.15175781 7.24447266 10 8 C9.67 8.66 9.34 9.32 9 10 C4.125 7.25 4.125 7.25 3 5 C1.35636866 4.27840576 -0.31050386 3.60648579 -2 3 C-1.34 2.67 -0.68 2.34 0 2 C0 1.34 0 0.68 0 0 Z " fill="#C9645F" transform="translate(325,214)"/>
<path d="M0 0 C0.99 0 1.98 0 3 0 C2.54625 1.216875 2.0925 2.43375 1.625 3.6875 C-0.38726152 9.65752708 -1.18186842 15.77257489 -2 22 C-2.33 22 -2.66 22 -3 22 C-3.46530864 14.21038876 -2.15721701 7.47321608 0 0 Z " fill="#E39995" transform="translate(370,198)"/>
<path d="M0 0 C2.5 2.0625 2.5 2.0625 5 5 C5.3125 8.8125 5.3125 8.8125 5 12 C3.68 11.67 2.36 11.34 1 11 C1.20625 10.401875 1.4125 9.80375 1.625 9.1875 C2.30671915 6.71549154 2.30671915 6.71549154 0 4 C0 2.68 0 1.36 0 0 Z " fill="#C14645" transform="translate(481,191)"/>
<path d="M0 0 C6 8 6 8 6 12 C4.35 11.67 2.7 11.34 1 11 C0.67 7.37 0.34 3.74 0 0 Z " fill="#CE6A67" transform="translate(187,176)"/>
<path d="M0 0 C0.33 1.65 0.66 3.3 1 5 C0.01 4.34 -0.98 3.68 -2 3 C-5.19806665 2.5396236 -5.19806665 2.5396236 -8.6875 2.375 C-10.45673828 2.26285156 -10.45673828 2.26285156 -12.26171875 2.1484375 C-13.16535156 2.09945312 -14.06898438 2.05046875 -15 2 C-15 1.67 -15 1.34 -15 1 C-9.91913204 0.15318867 -5.15171623 -0.09038099 0 0 Z " fill="#A92F2B" transform="translate(186,173)"/>
<path d="M0 0 C0.99 0 1.98 0 3 0 C1.5140084 4.59306496 -0.85014682 7.43569245 -4 11 C-4.66 10.01 -5.32 9.02 -6 8 C-5.67 7.01 -5.34 6.02 -5 5 C-2.9375 4.3125 -2.9375 4.3125 -1 4 C-0.67 2.68 -0.34 1.36 0 0 Z " fill="#CC6867" transform="translate(473,247)"/>
<path d="M0 0 C0.99 0 1.98 0 3 0 C3 0.66 3 1.32 3 2 C4.65 2 6.3 2 8 2 C8 2.66 8 3.32 8 4 C10.64 4.33 13.28 4.66 16 5 C16 5.33 16 5.66 16 6 C10.04492601 5.6083965 5.37180176 4.62875405 0 2 C0 1.34 0 0.68 0 0 Z " fill="#A61612" transform="translate(372,251)"/>
<path d="M0 0 C0.66 0 1.32 0 2 0 C2.33 0.99 2.66 1.98 3 3 C-7.37357631 7.59225513 -7.37357631 7.59225513 -13 7 C-13 6.67 -13 6.34 -13 6 C-10.36 5.67 -7.72 5.34 -5 5 C-5 4.34 -5 3.68 -5 3 C-3.35 3 -1.7 3 0 3 C0 2.01 0 1.02 0 0 Z " fill="#D2706F" transform="translate(410,251)"/>
<path d="M0 0 C5.98511371 0.34302035 10.75117306 0.82307843 16 4 C15.34 4.66 14.68 5.32 14 6 C14 5.34 14 4.68 14 4 C11.03 3.67 8.06 3.34 5 3 C5 2.34 5 1.68 5 1 C3.35 1 1.7 1 0 1 C0 0.67 0 0.34 0 0 Z " fill="#CE7874" transform="translate(397,173)"/>
<path d="M0 0 C1.32 0.33 2.64 0.66 4 1 C3.8125 2.875 3.8125 2.875 3 5 C0.4375 6.25 0.4375 6.25 -2 7 C-2 3 -2 3 0 0 Z " fill="#B31612" transform="translate(98,231)"/>
<path d="M0 0 C0 3.39593478 -0.52165948 4.06619881 -2.5 6.6875 C-2.9640625 7.31011719 -3.428125 7.93273437 -3.90625 8.57421875 C-4.2671875 9.04472656 -4.628125 9.51523438 -5 10 C-6.60031344 6.79937313 -5.03173691 4.27728194 -4 1 C-2.68 0.67 -1.36 0.34 0 0 Z " fill="#CD6768" transform="translate(513,194)"/>
<path d="M0 0 C2.31 0 4.62 0 7 0 C7.33 0.99 7.66 1.98 8 3 C7.34 3.66 6.68 4.32 6 5 C3.375 4.625 3.375 4.625 1 4 C0.67 2.68 0.34 1.36 0 0 Z " fill="#BB0D0B" transform="translate(464,191)"/>
<path d="M0 0 C2.91517292 1.07401108 4.77810176 1.77810176 7 4 C6.01 4 5.02 4 4 4 C4.33 5.32 4.66 6.64 5 8 C3.35 7.67 1.7 7.34 0 7 C0.33 6.01 0.66 5.02 1 4 C0.61067144 1.85744207 0.61067144 1.85744207 0 0 Z " fill="#C64D4C" transform="translate(376,237)"/>
<path d="M0 0 C4.83206107 3.22137405 4.83206107 3.22137405 5.6875 7.1875 C5.790625 8.115625 5.89375 9.04375 6 10 C6.66 10.33 7.32 10.66 8 11 C7.34 11.66 6.68 12.32 6 13 C4.99491199 11.21118264 3.99607264 9.41885304 3 7.625 C2.1646875 6.12839844 2.1646875 6.12839844 1.3125 4.6015625 C0 2 0 2 0 0 Z " fill="#D3817F" transform="translate(196,231)"/>
<path d="M0 0 C-0.33 0.66 -0.66 1.32 -1 2 C-6.79552517 3.35639951 -12.14131235 2.76622676 -18 2 C-18 1.67 -18 1.34 -18 1 C-15.93769732 0.8309093 -13.8751477 0.66482867 -11.8125 0.5 C-10.08966797 0.36078125 -10.08966797 0.36078125 -8.33203125 0.21875 C-5.53927574 0.0354038 -2.79680188 -0.04213637 0 0 Z " fill="#C6706F" transform="translate(312,206)"/>
<path d="M0 0 C0.33 0 0.66 0 1 0 C1 5.94 1 11.88 1 18 C0.67 18 0.34 18 0 18 C0 16.02 0 14.04 0 12 C-0.66 12 -1.32 12 -2 12 C-1.34 8.04 -0.68 4.08 0 0 Z " fill="#AC0F0D" transform="translate(292,188)"/>
<path d="M0 0 C1 3 1 3 0.375 5 C-1.36380086 7.52916489 -3.31063318 8.58454378 -6 10 C-4.6302836 6.00499382 -2.74277578 3.19990508 0 0 Z " fill="#CF716F" transform="translate(466,231)"/>
<path d="M0 0 C0.33 0.66 0.66 1.32 1 2 C-0.78150459 6.65170644 -2.51851506 8.81981814 -7 11 C-5.22054913 6.95579349 -2.60470327 3.53921513 0 0 Z " fill="#D37B7B" transform="translate(474,220)"/>
<path d="M0 0 C1.32 1.32 2.64 2.64 4 4 C3.67 4.99 3.34 5.98 3 7 C2.67 6.01 2.34 5.02 2 4 C1.01 4 0.02 4 -1 4 C-1.33 4.99 -1.66 5.98 -2 7 C-2.33 6.34 -2.66 5.68 -3 5 C-1.5625 2.375 -1.5625 2.375 0 0 Z " fill="#CE7D82" transform="translate(120,172)"/>
<path d="M0 0 C0.33 0.66 0.66 1.32 1 2 C-1.16798732 7.4770206 -1.16798732 7.4770206 -4.1875 9.375 C-4.785625 9.58125 -5.38375 9.7875 -6 10 C-4.6302836 6.00499382 -2.74277578 3.19990508 0 0 Z " fill="#D27B79" transform="translate(459,241)"/>
<path d="M0 0 C0.66 0 1.32 0 2 0 C2.33 1.32 2.66 2.64 3 4 C2.2575 4.28875 1.515 4.5775 0.75 4.875 C-1.56900199 5.82368263 -3.76932676 6.86559779 -6 8 C-5.04956626 6.66102417 -4.08940853 5.32894573 -3.125 4 C-2.59132813 3.2575 -2.05765625 2.515 -1.5078125 1.75 C-1.01023437 1.1725 -0.51265625 0.595 0 0 Z " fill="#D0716F" transform="translate(412,231)"/>
<path d="M0 0 C6.75 -0.125 6.75 -0.125 9 1 C9.625 3.0625 9.625 3.0625 10 5 C8.35 4.67 6.7 4.34 5 4 C5 3.01 5 2.02 5 1 C3.35 1 1.7 1 0 1 C0 0.67 0 0.34 0 0 Z " fill="#BB3F3C" transform="translate(307,221)"/>
<path d="M0 0 C2.95183101 2.95183101 3.08663988 5.95511947 4 10 C2.35 8.68 0.7 7.36 -1 6 C-0.67 4.02 -0.34 2.04 0 0 Z " fill="#CD7470" transform="translate(124,179)"/>
<path d="M0 0 C0.66 0 1.32 0 2 0 C1.125 6.75 1.125 6.75 0 9 C-0.66 9 -1.32 9 -2 9 C-2 7.68 -2 6.36 -2 5 C-1.34 5 -0.68 5 0 5 C0 3.35 0 1.7 0 0 Z " fill="#C56160" transform="translate(225,245)"/>
<path d="M0 0 C0.66 0.33 1.32 0.66 2 1 C1.67 4.63 1.34 8.26 1 12 C-1 10 -1 10 -1.23046875 7.87109375 C-1.20919922 6.66646484 -1.20919922 6.66646484 -1.1875 5.4375 C-1.18105469 4.63183594 -1.17460937 3.82617188 -1.16796875 2.99609375 C-1 1 -1 1 0 0 Z " fill="#BC362F" transform="translate(204,236)"/>
<path d="M0 0 C1.98 0.495 1.98 0.495 4 1 C2.70700306 3.88437779 1.34058637 5.87219421 -1 8 C-0.67 5.36 -0.34 2.72 0 0 Z " fill="#CE6C6B" transform="translate(483,231)"/>
<path d="M0 0 C0.33 0.99 0.66 1.98 1 3 C3.01508358 3.73323796 3.01508358 3.73323796 5 4 C5 4.66 5 5.32 5 6 C3.35 6 1.7 6 0 6 C-0.38218767 4.34385343 -0.71395102 2.67542976 -1 1 C-0.67 0.67 -0.34 0.34 0 0 Z " fill="#B43D38" transform="translate(386,217)"/>
<path d="M0 0 C1.98 0.495 1.98 0.495 4 1 C3.67 1.598125 3.34 2.19625 3 2.8125 C1.79212012 5.05386471 1.79212012 5.05386471 2 8 C0.4375 5.6875 0.4375 5.6875 -1 3 C-0.67 2.01 -0.34 1.02 0 0 Z " fill="#CB6A68" transform="translate(498,211)"/>
<path d="M0 0 C2.18975773 3.28463659 2.99806563 6.20696275 4 10 C2.35 8.68 0.7 7.36 -1 6 C-0.67 4.02 -0.34 2.04 0 0 Z " fill="#D4827F" transform="translate(132,199)"/>
<path d="M0 0 C1.37432457 3.81756824 0.67975039 7.07255329 0 11 C-0.99 10.67 -1.98 10.34 -3 10 C-2.39009109 6.44219804 -1.4216319 3.3171411 0 0 Z " fill="#D5837F" transform="translate(111,192)"/>
<path d="M0 0 C0.99 0 1.98 0 3 0 C3.66 1.65 4.32 3.3 5 5 C3.68 5 2.36 5 1 5 C1 4.34 1 3.68 1 3 C0.34 3 -0.32 3 -1 3 C-0.67 2.01 -0.34 1.02 0 0 Z " fill="#BB0D09" transform="translate(489,225)"/>
<path d="M0 0 C2.18975773 3.28463659 2.99806563 6.20696275 4 10 C2.68 9.67 1.36 9.34 0 9 C0 6.03 0 3.06 0 0 Z " fill="#D88783" transform="translate(139,217)"/>
<path d="M0 0 C1.32 0.66 2.64 1.32 4 2 C3.1875 3.9375 3.1875 3.9375 2 6 C1.01 6.33 0.02 6.66 -1 7 C-0.67 4.69 -0.34 2.38 0 0 Z " fill="#C55759" transform="translate(103,212)"/>
<path d="M0 0 C2.15377564 2.62198774 3.40072174 4.64404172 4 8 C2.68 7.67 1.36 7.34 0 7 C0 4.69 0 2.38 0 0 Z " fill="#D17574" transform="translate(193,188)"/>
<path d="M0 0 C-0.99 0 -1.98 0 -3 0 C-3.33 1.32 -3.66 2.64 -4 4 C-5.65 3.67 -7.3 3.34 -9 3 C-5.83583464 -0.30799106 -4.50236011 -1.35070803 0 0 Z " fill="#C9605A" transform="translate(377,177)"/>
<path d="M0 0 C4.21912747 0.4794463 6.79663178 1.16625119 10 4 C7.36 3.67 4.72 3.34 2 3 C2 2.34 2 1.68 2 1 C1.34 0.67 0.68 0.34 0 0 Z " fill="#CB6C6C" transform="translate(316,174)"/>
<path d="M0 0 C3.375 4.5 3.375 4.5 4 8 C3.34 8 2.68 8 2 8 C1.67 8.66 1.34 9.32 1 10 C0.67 6.7 0.34 3.4 0 0 Z " fill="#CE6F6A" transform="translate(210,223)"/>
<path d="M0 0 C2.15377564 2.62198774 3.40072174 4.64404172 4 8 C2.68 8 1.36 8 0 8 C0 5.36 0 2.72 0 0 Z " fill="#D88682" transform="translate(197,196)"/>
<path d="M0 0 C0.625 1.8125 0.625 1.8125 1 4 C0.01 5.485 0.01 5.485 -1 7 C-1.99 7 -2.98 7 -4 7 C-2.92598892 4.08482708 -2.22189824 2.22189824 0 0 Z " fill="#CE6D6C" transform="translate(499,185)"/>
<path d="M0 0 C2 2 2 2 2 5 C0.35 5 -1.3 5 -3 5 C-1.125 1.125 -1.125 1.125 0 0 Z " fill="#BA0C0E" transform="translate(373,246)"/>
<path d="M0 0 C0.66 0.33 1.32 0.66 2 1 C1.34 2.32 0.68 3.64 0 5 C-0.66 5 -1.32 5 -2 5 C-2.33 5.99 -2.66 6.98 -3 8 C-3.33 7.01 -3.66 6.02 -4 5 C-2.0625 2.3125 -2.0625 2.3125 0 0 Z " fill="#AC1719" transform="translate(470,228)"/>
<path d="M0 0 C2.18975773 3.28463659 2.99806563 6.20696275 4 10 C3.34 9.67 2.68 9.34 2 9 C2 8.34 2 7.68 2 7 C1.34 7 0.68 7 0 7 C0 4.69 0 2.38 0 0 Z " fill="#D68888" transform="translate(128,189)"/>
<path d="M0 0 C1.9375 0.125 1.9375 0.125 4 1 C5.75 3.0625 5.75 3.0625 7 5 C4.03 4.01 1.06 3.02 -2 2 C-1.34 1.34 -0.68 0.68 0 0 Z " fill="#D27D7D" transform="translate(400,188)"/>
<path d="" fill="#FFFFFF" transform="translate(0,0)"/>
<path d="" fill="#FFFFFF" transform="translate(0,0)"/>
<path d="" fill="#FFFFFF" transform="translate(0,0)"/>
<path d="" fill="#FFFFFF" transform="translate(0,0)"/>
<path d="" fill="#FFFFFF" transform="translate(0,0)"/>
<path d="" fill="#FFFFFF" transform="translate(0,0)"/>
<path d="" fill="#FFFFFF" transform="translate(0,0)"/>
<path d="" fill="#FFFFFF" transform="translate(0,0)"/>
<path d="" fill="#FFFFFF" transform="translate(0,0)"/>
<path d="" fill="#FFFFFF" transform="translate(0,0)"/>
<path d="" fill="#FFFFFF" transform="translate(0,0)"/>
<path d="" fill="#FFFFFF" transform="translate(0,0)"/>
<path d="" fill="#FFFFFF" transform="translate(0,0)"/>
<path d="" fill="#FFFFFF" transform="translate(0,0)"/>
<path d="" fill="#FFFFFF" transform="translate(0,0)"/>
<path d="" fill="#FFFFFF" transform="translate(0,0)"/>
<path d="" fill="#FFFFFF" transform="translate(0,0)"/>
<path d="" fill="#FFFFFF" transform="translate(0,0)"/>
<path d="" fill="#FFFFFF" transform="translate(0,0)"/>
<path d="" fill="#FFFFFF" transform="translate(0,0)"/>
<path d="" fill="#FFFFFF" transform="translate(0,0)"/>
<path d="" fill="#FFFFFF" transform="translate(0,0)"/>
<path d="" fill="#FFFFFF" transform="translate(0,0)"/>
<path d="" fill="#FFFFFF" transform="translate(0,0)"/>
<path d="" fill="#FFFFFF" transform="translate(0,0)"/>
<path d="" fill="#FFFFFF" transform="translate(0,0)"/>
<path d="" fill="#FFFFFF" transform="translate(0,0)"/>
<path d="" fill="#FFFFFF" transform="translate(0,0)"/>
<path d="" fill="#FFFFFF" transform="translate(0,0)"/>
<path d="" fill="#FFFFFF" transform="translate(0,0)"/>
<path d="" fill="#FFFFFF" transform="translate(0,0)"/>
<path d="" fill="#FFFFFF" transform="translate(0,0)"/>
<path d="" fill="#FFFFFF" transform="translate(0,0)"/>
<path d="" fill="#FFFFFF" transform="translate(0,0)"/>
<path d="" fill="#FFFFFF" transform="translate(0,0)"/>
<path d="" fill="#FFFFFF" transform="translate(0,0)"/>
<path d="" fill="#FFFFFF" transform="translate(0,0)"/>
<path d="" fill="#FFFFFF" transform="translate(0,0)"/>
<path d="" fill="#FFFFFF" transform="translate(0,0)"/>
<path d="" fill="#FFFFFF" transform="translate(0,0)"/>
<path d="" fill="#FFFFFF" transform="translate(0,0)"/>
<path d="" fill="#FFFFFF" transform="translate(0,0)"/>
<path d="" fill="#FFFFFF" transform="translate(0,0)"/>
<path d="" fill="#FFFFFF" transform="translate(0,0)"/>
<path d="" fill="#FFFFFF" transform="translate(0,0)"/>
<path d="" fill="#FFFFFF" transform="translate(0,0)"/>
<path d="" fill="#FFFFFF" transform="translate(0,0)"/>
<path d="" fill="#FFFFFF" transform="translate(0,0)"/>
<path d="" fill="#FFFFFF" transform="translate(0,0)"/>
<path d="" fill="#FFFFFF" transform="translate(0,0)"/>
<path d="" fill="#FFFFFF" transform="translate(0,0)"/>
<path d="" fill="#FFFFFF" transform="translate(0,0)"/>
<path d="" fill="#FFFFFF" transform="translate(0,0)"/>
<path d="" fill="#FFFFFF" transform="translate(0,0)"/>
<path d="" fill="#FFFFFF" transform="translate(0,0)"/>
<path d="" fill="#FFFFFF" transform="translate(0,0)"/>
<path d="" fill="#FFFFFF" transform="translate(0,0)"/>
<path d="" fill="#FFFFFF" transform="translate(0,0)"/>
<path d="" fill="#FFFFFF" transform="translate(0,0)"/>
<path d="" fill="#FFFFFF" transform="translate(0,0)"/>
<path d="" fill="#FFFFFF" transform="translate(0,0)"/>
<path d="" fill="#FFFFFF" transform="translate(0,0)"/>
<path d="" fill="#FFFFFF" transform="translate(0,0)"/>
<path d="" fill="#FFFFFF" transform="translate(0,0)"/>
<path d="" fill="#FFFFFF" transform="translate(0,0)"/>
<path d="" fill="#FFFFFF" transform="translate(0,0)"/>
<path d="" fill="#FEFFFF" transform="translate(0,0)"/>
<path d="" fill="#FFFFFF" transform="translate(0,0)"/>
<path d="" fill="#FFFFFF" transform="translate(0,0)"/>
<path d="" fill="#FFFFFF" transform="translate(0,0)"/>
<path d="" fill="#FFFFFF" transform="translate(0,0)"/>
<path d="" fill="#FFFFFF" transform="translate(0,0)"/>
<path d="" fill="#FFFFFF" transform="translate(0,0)"/>
<path d="" fill="#FFFFFF" transform="translate(0,0)"/>
<path d="" fill="#FFFFFF" transform="translate(0,0)"/>
<path d="" fill="#FFFFFF" transform="translate(0,0)"/>
<path d="" fill="#FFFFFF" transform="translate(0,0)"/>
<path d="" fill="#FFFFFF" transform="translate(0,0)"/>
<path d="" fill="#FFFFFF" transform="translate(0,0)"/>
<path d="" fill="#FFFFFF" transform="translate(0,0)"/>
<path d="" fill="#FFFFFF" transform="translate(0,0)"/>
<path d="" fill="#FFFFFF" transform="translate(0,0)"/>
<path d="" fill="#FFFFFF" transform="translate(0,0)"/>
<path d="" fill="#FFFFFF" transform="translate(0,0)"/>
<path d="" fill="#FFFFFF" transform="translate(0,0)"/>
<path d="" fill="#FFFFFF" transform="translate(0,0)"/>
<path d="" fill="#FFFFFF" transform="translate(0,0)"/>
<path d="" fill="#FFFFFF" transform="translate(0,0)"/>
<path d="" fill="#FFFFFF" transform="translate(0,0)"/>
</svg>
